<?xml version="1.0" encoding="UTF-8"?>
<svg id="_レイヤー_1" data-name="レイヤー 1" xmlns="http://www.w3.org/2000/svg" viewBox="0 0 850.39 850.39">
  <defs>
    <style>
      .cls-1 {
        fill: #fffdf7;
      }
    </style>
  </defs>
  <path class="cls-1" d="M567.6,589.76c-3.68,1.04-6.39,3.33-9.75.98-3.04-2.12-4.26-4.74-3.44-8.89,1.89-9.49,5.94-8.03,7.79-8.99,4.53-2.35,8.69-7.44,11.73-11.78,2.14-3.06,1.32-8.03.5-11.48-3.16-13.3-5.79-26.04-8.06-39.47-1.1-6.5,1.01-12.97.16-18.97-.84-5.92-2.45-12.23-3.67-18.04-1.49-7.07-4.27-13.14-3.86-20.87.53-10.01-4.15-26.29-2.79-40.03.38-3.8,2.71-7.64,2.69-11.4-.03-5.11.51-9.43,1.28-14.34.43-2.76-.24-6.1,1.01-8.7,2.63-5.47,3.01-11.4,1.32-17.11-2.12-7.2-2.99-13.62-4.17-21.87-3.84,6.97-10.24,8.09-16.18,10.55s-10.05,5.1-16.75,3.35c-3.11-.81-6.1-.82-6.66-5.46-.26-2.18-.96-5.11-1.52-7.66-2.53-11.61,2.67-36.92,2.13-44.7-.47-6.77-4.81-12.7-3.67-20.23.54-3.56-2.36-8.56-.13-12.39.48-.83,2.31-2.7,3.08-1.63.81,1.14.93,3.39,1.19,5.12l2.3-8.41c.27-1,2.42-1.97,3.27-1.71l1.5.45c.87.26.87-3.58,3.24-3.71.96-.05,2.04,1.67,2.69,2.86l2.35.12c.68.04,1.79,1.76,1.78,2.51l-.19,11.51c-.04,2.53.26,5.05,1,7.46,2.72-2.93,8.93-7.95,11.43-4.32,1.83,2.66-2.62,3.16-5.67,9.71-4.54,9.74-6.45,5.14-8.16,19.14-.9,7.35-.93,14.35,1.97,21.67l8.06-6.19c3.12-2.39,4.28-6.42,7.3-9.01,4.35-3.74,9.1-3.74,14.21-5.66,4.08-1.53,9.38-5.16,13.29-7.88,3.33-3.56,1.44-11.98-.87-15.39-1.23-1.81-1.96-2.53-2.52-4.25l-2.74-8.44c-1.46-4.49-1.54-6.57-.45-11.07.79-3.25.57-7.3,5.35-8.31.6-1.3,1.78-4.87,3.18-5.1l5.55-.91c2.58-2.68,5.49-3.98,8.79-4.19,3.83-.24,6.3,3.31,9.06,4.45,4.8,1.97,5.18,4.77,7.72,8.51,3.58,5.27,5.55,11.44,1.1,16.5.44,2.74.15,5.31-2.01,7.56-3.69,3.85-5.18,10.19-3.44,15.4,1.25,3.76,11.74,9.33,15.39,13.25,5.47-.6,9.77,1.72,13.26,5.39,6.38,6.71,6.56,14.13,6.9,22.75.24,5.94,3.34,12.06,2.61,18.8-1.72,16.1,6.95,23.6,1.42,43.56-1.79,6.47-2.9,12.94-4.15,19.56l-1.81,9.55c-1.49,7.87,2.73,14.7-10.15,27.67-.66,6.42-1.4,12.67-3.58,18.5-.95,2.53-1.4,4.07-1.1,6.86.47,4.22-.24,9.05-.54,13.51,4.37,12.19,6.44,24.89,4.1,37.83l-5.18,28.58-.59,10.22c.85,1.55,2.2,3.84,3.01,5.56l7.38,15.73c1.33,2.83-.8,6.05-2.59,8.16-2.65,3.13-6.99,4.16-10.55,3.4-1.58-.34-2.36-3.54-3.6-4.83-2.32-2.41-4.78-3.62-3.67-7.92,1.75-6.77-8.19-4.52-5.6-12.95.89-2.89,1.31-6.05.86-9.28-.57-4.16,1.81-9.54.47-13.39-2.82-8.11-2.21-16.38-4.31-24.2-2.86-10.65-5.79-21.12-1.72-32.21-4.54-6.75-5.19-26.32-5.7-35.11-.33-5.73-1.45-10.95-3.27-16.34l-2.64-7.81c-.6,6.09-1.4,11.19-1.6,16.88-.37,10.15,1.81,24.12-2.08,34.2,6,8.9,4.87,18.68,3.53,28.61l-2.75,20.45c-.61,4.54,2.11,28.26,3.13,33.11.82,3.89-1.15,6.9-4.95,7.98l-8.98,2.55c-6.36,10.11-2.06,9.18-12.3,12.07ZM606.93,262.77c1.41.86,2.44,2.68,3.67,4.42.5-2.42.81-4.57,1.1-6.91l.18-1.43c.03-.25.97.12.99.38l.5,5.18c3.1-2.97,2.7-7.9.24-10.89-4.35,3.83.38-7.52-7.18-9.88-.55,1.97-.82,3.25-1.89,5.49l-.32-5.78c-.91-3.23-4.71-4.73-7.6-5.01-3.21-.31-5.64,1.57-8.18,3.93l-5.81.84-2.75,4.81c-7.84,4.51-1.98,3.65-5.3,10.36-1.05,2.11-1.1,4.91,1.18,5.86-.32-1.99-.3-5.74,2.24-5.58,1.17.07,3.3,1.51,4.3,1.22,3.26-.94,4.45-6.11,9.1-7.36.57-.15,2.68.18,2.74.71l.33,2.63c3.55-.63,5.89-3.02,8.73-5.86,2.33,2.39-4.39,7.9,3.74,12.86ZM627.19,448.2c7.65-2.66,5.06-17.57,10.94-12.37-.72,1.99-1.42,3.82-1.75,6.14,6.76-8.36,3.29-18.09,4.64-22.79l1.72-5.98c1.99-6.91,2.41-13.92,4.31-20.86,2.16-7.9,2.36-15.62.4-23.67-4.11-16.91-.01-19.74-3.77-33.93-.87,2.14-.53,3.49-2.26,5.02.17-3.96.56-7.13,1.1-10.99,1.33-9.53-2.73-19.32-11.42-24.08-3.58-1.96-14.74,1.1-10.55-1.39l1.59-.94-13.54-10.29c.08,1.83.81,3.29-.76,4.7-1.02-4.48-1.05-7.85-1.27-12.64-4.93,4.05-9.4,11.57-17.63,8.53-2.15-.79-3.76-3.16-5.38-4.68-.5,2.35-.13,6.55-1.97,7.65l-12.18,7.3c6.36,4.18,15.23-2.17,18.55,1.49l-12.17,1.54c-2.85.36-6.42-1.52-9.42-1.51-7.74.04-14.58,4.95-18.47,11.47l2.79,2.1c-4.5.67-11.74,2.88-12.31,7.8-.65,5.7,4.05,11.5.92,17.3-1.67-20.65-7.58-21.55-5.44-42.76.65-6.42,2.95-10.88,6.65-15.89,2.57-3.47,3.63-8.12,7.92-10.79-3.18-1.75-5.2.3-7.18,2.17l-5.49,5.15c-5.26,1.62-6.97,4.85-7.44,10.93l-2.36-4.8c4.64-2.72.75-4.33,10.06-8.03l-.73-8.62c-.41-4.81,1.33-9.32-.97-14.2l-1.57,13.55c-.08.73-1.57,1.18-2.3.93-.58-.2-.84-1.45-.81-2.31l.53-14.59c-2.56,5.07-3.14,10.88-2.11,16.6-.62.51-2.46,1.07-3.52,1.07-2.71-6.08,1.52-12.28.5-14.16-1.27-2.35-3.86,7.71-3.48,13.66.03.56,1.19,1.81.83,2.15-2.29,2.21-5.34,1.69-5.07,5.4.46,6.39,2.51,12.21,5.37,17.57-3.16,2.92-5.97,41.89-3.48,41.89h1.5c-.84,3.67-1.34,7.89.64,11.52.88,1.61,11.84,3.25,15.95.43l13.33-9.15c-.53,1.49-1.25,2.67-2.17,4.32,5.28-1.64,10.14-7.42,10.92-13.49.31-2.37-.18-5.61-.47-8.27-.2-1.84-3.09-2.82-4.34-4.79l5.68.81c1.24,7.32-1.78,18.81,10.76,20.69,5.71.86,11.57.64,17.55,0,2.13-.23,3.89-1.91,5.65-3.29,1.22-.95,3.79,1.71,5.11,2.04,6.19,1.52,12.33,1.1,18.86,1.03,7.22-.08,8.57-13.96,10.06-18.18,2.62,5.15-2.26,9.37-2,13.77l1.1,18.99,2.11,7.63c.86,3.12,2.09,5.84,4.3,8.02s3.84,5.8,1.57,8.72c-1.27-2.91.45-5.48-2.8-7.1-1.06,7.24.12,13.91.76,20.98.58,6.4-.37,12.73-.5,19.11-.13,6.08-5.52,1.93-8.86,13.45-.58,2.01-3.96,4.18-5.73,5.58-.46.53.87,2.2,1.55,2.06.55-.12,2.05-.49,2.54-.89l5.47-4.48c.49-.4,2.02-.62,2.58-.39s.98,1.84.56,2.28l-1.54,1.61c-.98,5.75-3.14,10.93-5.62,17.2,6.32-2.7,6.55-14.14,10.01-16.02.18,4-4.46,12.62-6.49,15.98ZM588.71,290.78c1.75,1.34,6.39,1.15,7.99-.01,5.26-3.8,11.4-9.46,11.14-15.43-1.44,1.13-2.57,1.9-3.29,1.76,1.69-2.86,2.82-4.51,3.86-6.87,1.1-2.48-.66-5.29-2.71-6.47-3.44-1.98-4.76-4.78-4.62-9.4-3.93,3.27-7.65,3.34-11.59.73-1.7,1.71-3.49,4.2-5.17,5.21l-4.84,2.9-1.38-3.45c-.68,1.1-1.38,2.92-.86,3.36l2.28,1.94c1.49,1.27.07,4.34.4,5.84l1.76,8.08c.95,4.35,3.14,8.83,7.03,11.82ZM518.96,270.23l-1.33-7.88c-2.29,4.26-1.31,8.47.38,12.77,1.95-1.12,1.3-2.84.96-4.89ZM596.24,433.94c-.41,1.62.59,5.37,1.19,6.87,5.51,13.72,2.83,28.19,6.69,45.75,1.15,5.22,9.89,18.6,8.18,22.36l-5.93-12.81c-3.19,10.25-1.52,20.82,3.59,30.09l-.87,2.87,1.5,11.48c1.15-.66,1.97-1.06,2.5-.99,1.08,9.78-1.55,18.55-.38,27.7,7.2,9.71,2.62,14.66,5.07,22.27,1.82,1.65,3.36,2.89,4.04,5.01.82,2.55,4.29,3.09,5.62,1.43-1.27-.46-3.08-1.11-2.97-1.07l.96-5.43,3.42,2.82-1.68-4.24c-.07-.27,1.62,0,1.81.16l1.01-2.24c1.41,2.11,2.32,3.4,3.69,4.92.43-.58,1.03-1.4.73-1.65l-1.11-.93c-.46-.39-1.82-1.34-1.57-1.87l1.21-2.53-5.82-12.88c-1.14-2.52-2.68-4.37-4.91-5.62,3.98-3.52.95-5.07,3.03-15.02,3.55-16.98,6.4-27.85,4.69-45.08-.55-5.55-2.59-10.49-3.96-15.68-1.26-4.77,1.94-10.34-.09-14.83-.54,1.28-1.15,2.61-1.62,3.19-1.18-3.74,1.42-5.88,2.64-8.92,2.44-6.08,3.53-13.15,3.84-19.41l-7.99.03c-2.15-3.47,5.5-11.56,4.65-19.63-2.68,1.89-7.48,6.94-10.61,2.91-2.9-3.74,4.36-4.44,5.54-8.12s2.67-6.24,5.18-8.79c-.59-5.79.19-22.42-4.35-26,1.41-3.82,2.07-9.33.45-13.58-2.64-6.96-.74-12.36,1.34-19.04,1.82-5.86-.05-13.22-.3-19.1-2.22,1.52-4.31,3.13-6.54,3.18-5.41.12-20.33,1.03-22.76-3.78-1.48,1.38-3.95,3.62-6.45,3.92-9.36,1.12-23.22,2.29-28.62-6.94-.21,9.63,1.69,18.27,4.15,27.1,3.95,14.18-8.13,19.38.4,27.46l-3.08-.61c-1.32,3.17-1.29,7.35-1.14,11.44.31,8.67-5.51,4.93-1.78,32.62,1.23,9.14,1.87,17.92,2.35,26.98.38,7.17,3.51,12.92,8.13,17.99-1.57.14-2.61-.88-3.97-2.09-.25,7.42,3.2,13.58,6.12,20.8-1-.34-1.6-.84-3.09-2-2.81,12,3.95,39.6,7.32,53.11,1.9,7.62,1.22,14.86-3.52,21.36-2.86-3.43-4.58,6.11-12.95,6.64-.31.02-1.35,1.41-1.03,1.43l1.25.09c.33.02,1.42-.99,1.51-.68l.41,1.54c.13.48.62,1.79,1.1,1.92l1.97.51-5.69,4.26c3.48.75,4.02-2.3,7.89-3.01.27.37-5.36,6.15-5.44,6.14l-3.74-.14c.75,2.08,2.68,2.74,4.71,2.71,1.32-.02,3.07-1.65,4.25-2.88,11.88,2.91,7.8-13.79,19.41-15.45l-2.35,2.84c4.65-.7,9.66-1.51,8.92-6.91l-1.32-9.64c-1.3-9.5-2.04-18.85-2.62-28.35,2.66-1.88,3.47-10.25,1.58-12.84,3.85-9.33,5.08-20.6-.89-29.77l-.89,10.59c-3.24-5.62-.21-10.71,1.07-15.93,2.09-8.59,1.75-17.36,1.17-26.11-.68-10.16,1.52-11.54,1.25-21.87-3.86.33-6.96-1.02-7.41-4.83-1.13-9.61,2.69-10.94-3.36-13.86-3.24-1.56-4.81-5.76-5.96-9.17-1.49-4.42-3.36-8.1-5.63-12.35,8.19,3.84,4.1,17.6,16.6,23.33l-.34,9.56c-.04,1.24.44,3.62,1.16,4.47,1.13,1.32,6.76,2.43,8.84.64.73-.63,1.8-2.75,1.67-3.82l-.82-6.74c-.3-2.5.19-5.62,3.12-5.62-4.96,8.22,3.09,8.39-3.29,18.38ZM629.81,414.92c2.97-10.32,2.25-20.01,1-29.74-.66-5.15.16-10.23-.14-15.19-.18-3.01-3.85-6.41-3.65-11.31-7.86,11.02,1.52,17.44-1.62,30.86,4.34,8.58,1.74,16.8,4.4,25.38ZM615.31,579.32c-.03-4.4-.64-6.58-3.08-9.57-.62,2.32-.97,4.15-1.32,6.63l4.4,2.94Z"/>
  <path class="cls-1" d="M729.56,448.73l-1.67,17.87c-.38,4.11-.38,7.99.21,12.09.59,4.42,1.28,9.16.05,13.45-.83,2.89-1.52,6.14-.34,9.02,3.32,8.12,2.07,15.5,1.62,23.85l-1.88,34.79c1.59,3.12,7.17,12.85,3.06,15.19l-9.86,5.6c-4.1,12.79-5.26,8.94-11.25,12.57-2.78,1.68-6.2,1.62-8.15-1.91-1.66-3-1.63-8.6.12-11.94l6.94-5.31,6.17-9.53c-1.73-9.25-3.6-17.95-5.8-26.99-2.54-10.43-7.23-28.01-3.34-37.67l-2.07-11.22c-1.82-9.87-6.87-18.61-9.52-28.45-4.78-3.57-7.78-8.25-10.4-13.27-5-9.55,3.94-3.25,3.13-25.03-.37-9.97-.75-19.41-.22-29.24.88-16.32,6.15-13.43,6.48-32.52l.3-17.5c.13-7.73,5.41-14.07,12.75-16.04,2.61-.7,2.79-1.99,3.54-4.29,4.95-15.14-2.81-21.7-2.17-27.9.47-4.54.91-8.52,1.69-12.86,1.07-5.96,6.51-10.86,11.63-13.47.64-.33,2.98-.53,3.54-1.07,4.78-4.58,13.92-5.16,18.49,1.12,8.58,11.78,12.88,16.55,11.99,31.15-.51,8.44-.08,16.53,2.86,24.43,7.01,2.51,12.23,11.8,12.88,18.3,1.53,15.39-.16,20.05,3.26,35.97,2.82,13.13.69,25.84-2.88,38.53-1.12,3.97-1.12,8.21-2.53,12.02,3.05,8.89,1.52,13.02,2.17,23.4.45,7.19.93,14.2.73,21.53-.23,8.13.41,15.6,2.75,23.41,1,3.34.21,7.96,1.77,11,2.07,4.05,4.56,7.53,5.74,11.97,1.91,7.2,3.03,14.33,3.98,21.77,2.01,15.77,1.09,25,12.6,37.76,2.21,2.44,5.77,3.8,7.04,7.12,1.41,3.69-.8,8.25-.78,13.68-2.15,2.34-7.03,2.43-9.45-.83-.77-1.03-3.56-1.81-4.64-2.77-5.64-4.99-2.26-9.66-9.77-11.87-3.63-1.07-5.58-4.11-4.24-7.7,1.24-3.31.6-5.78-.6-8.94-3.64-9.58-7.53-18.46-13.1-27.05-5.42-8.35-10.68-18.82-7.23-28.68-5.12-7.38-8.72-14.95-11.16-23.51-1.61-5.67-2.6-11.53-4.85-16.93l-9.59-23.1ZM743.24,309.66c-.07,1.89.68,5.09,1.55,6.48l10.29,5.74c-1.95-7.74-2.53-14.19-2.05-21.59.98-14.93-2.7-19.02-11.52-31.13-2.64-3.62-7.13-4.97-11.39-3.88-3.44.88-6.94,3.7-7.66,7.93-.64,3.74,2.54,6.75,6.18,6.97,7.83.47,4.24,7.13,10.85,10.65,2.89,1.54,4.27,4.13,4.15,7.43l-.41,11.4ZM719.08,309.99c-7.98-10.54-7.06-12.24-6.43-24.61.4-7.94,8.56-6.14,8.3-15.84-11.84,7.29-10.1,11.76-11.68,20.44-2.31,12.75,7.64,15.27,1.23,34.17,8.19-3.86,8.78-6.69,8.59-14.16ZM721.48,309.43c4.81,2.53,17.83-5.7,15.81-11.36-5.07.22,2.07-4,.11-6.29-1.56-1.81-3.35-4.02-4.02-6.1-2.32-7.26-6.91-.14-12.4-9.15l-5.28,4.93c-1.17,1.09-2.19,5.13-.83,5.96,1.08.65,3.34.95,3.38,1.84.03.62-.01,2.19.4,2.03l1.84-.71c.72,1.57.76,4.17-.09,6.18l-1.77-3.22-2.32.28c-.44.05-.87-.71-1.82-1.65-2.94,3.8,2.9,15.12,6.98,17.27ZM740.09,301.4c-.77,3.24-1.11,9.86,1.78,13.25l-.05-12.99M740.54,471.13c5.51,14.91,4.17,22.25,14.28,37.79,1.74,2.68,3.13,5.15,3.89,8.21-1.22-.27-1.68-.97-2.73-2.29-2.09,10.03,4.28,19.79,9.75,28.68,3.33,5.41,5.92,10.89,8.32,16.76l7.31,17.81-.68.96-.57-.77-1.92-2.61c-1.06,1.48-1.24,5.07.18,6.16,1.06.81,3.2,1.61,4.49,1.96l-.65-3.6c3.34,1.08,4.78,11.86,8.79,14.7l6.45,4.58c2.04,1.45,5.68.99,5.61-1.42-2.4-.36-8.13-4.11-6.49-4.79.25-.1,1.33-.48,1.48-.7l4.44-6.95-2.75-2.88-.95,2.07c-.15.33-.91-.7-1.07-1.03-5.9-12.13-10.84-13.59-12.46-29-1.37-13.09-3.05-32.89-9.23-43.47l-1.82,3.35c-.93-6.13-.59-11.72-2.01-17.51-5.2-21.21-.82-23.73-3.61-43.81-2.76,3.83-4.36,6.7-7.76,8.49l-3.71-2.8c-2.66-2.01,4.06-7.9.48-14.16-.72,1.7-2.14,7.71-4.62,6.46-2.82-1.43-.75-9.58-.29-13.39,1.81-15.07,4.24-7.35,4.63-16.71l.81-19.14c.19-4.56-2.55-9.62-4.94-13.38-6.35-9.97,2.22-14.5,1.74-24.96-3.17,3.24-6.58,5.78-11.34,4.9-3.98-.73-8.7-2.89-9.82-7.05,5.71,4.17,10.73,8.29,17.22,3.71,5.56-3.93,4.57-11.68.64-17.01.75-.08,2.03.04,1.91-.31l-.51-1.48c-.33-.94-.59-2.38.16-2.67s1.72-.1,1.78.51l1.06,11.04c.65,6.8.2,13.71,3.45,20.01,1.33,2.58,2.29,4.71,3.5,7.92l-2.34-.54c.13,8.73-.47,17.36-1.26,26.14-.89,9.87,1.12,13.77-3.08,20.36-1.75,2.75-1.73,6.2-2.07,9.5-.39,3.85-1.94,7.32-.55,11.19,3.12-3,2.98-15.67,5.11-13.02-1.72,10.53,4.19,5.98-.35,20.09,4-1.61,3.16-11.7,5.08-14.9,1.56,1.43,2.3,1.89,4.44,2.51,2.01-5.89,0-11.91-2.04-17.86l2.01-2.6c.55-3.02.52-6.55,1.45-9.29,4.87-14.36,4.89-28.63,1.54-43.28-3.81-16.7,4.16-38.19-15.24-47.33-6.11,2.67-12.55,4.4-19.5,2.49,6.3-1.54,11.68-.14,17.65-3.52-11.49-8.53-15.38-2.86-16-19.62-4.74,5.12-10.41,8.49-17.2,8l-.55,8.17c-3.56,2.41-5.86,4.12-9.29,7l12.42.24c.26,0,1.26.49,1.04.61-.15.08-.83.8-1,.8l-12.46.15c-.47-.45-1.1-1.7-1.52-1.59l-2.01.57c-6.93,1.95-12.37,7.27-12.51,14.9l-.36,18.96c-.32,16.88-5.61,16.21-6.41,30.61-.6,10.81-.08,21.36.2,32.14.18,6.69-.85,12.77-5.01,18.03l2.32,4.95c1.74,3.72,3.91,6.9,6.95,9.58,1.43-3.44-1.67-3.94-2.9-5.97-1.49-2.46-3.19-10.07-2.48-9.88,2.94.8,1.4,7.1,4.37,9.73-1.06-7.87-1.99-14.14.08-21.34,5.48-19.06-1.3-25.49,9.52-39.3l2.75-12.23c.72-3.18,1.35-6.9,1.14-9.85-9.14-11.04-1.43-13.76-1.37-24.39,2.48,2.55,1.26,5.68-.08,8.44-2.39,4.91-1.8,12.3,3.44,14.91s9.91-1.39,14.6-4.6c-1.52,5.2-7.39,6.51-12.71,7.15,3.51,21.13-12.67,19.84-12.86,37.47-.1,9.45-1.74,18.15-3.75,27.32-1.74,7.94,1.33,15.77,3.09,23.3.58,2.5.88,5.03,1.59,7.47,2.91,10.05,6.4,19.25,11,28.7l-1.94-.27c-.33,4.96,2.56,8.53,6.26,12.02l-3.17-.3c.59,1.27.98,2.64.32,3.01l-3.51-3.8c-.62,6.21-.19,12.26,1.23,18.47l7.41,32.5c1.15,5.02,1.65,9.65,1.16,14.85l-2.47-.86c-1.71,4.59-5.16,7.65-9.82,10.03.88,1.02,2.28,2.19,2.25,3.04-.03.73-.62,2.05-1.12,3.44l3.65-2.25-2.3,4.66,4.17-2.89c.38,3.15-3.7,4.39-5.2,5.63-.4.33-.09,2.05.44,1.97.39-.07,1.7-.3,2.14-.51l7.31-3.49c4.32-2.06,4.49-15.18,9.43-14.58l-1.39,3.22,7.73-4.28c.31-3.63-1.13-6.75-2.92-9.88-1.13,3.63-.22,6.44-2.45,9.61l.43-12.33c.06-1.75,0-2.83.3-4.62,1.75-10.48.84-21.04,2.05-31.57.94-8.14,2.05-16.16-2.36-23.53l-.96,7.31c-2.67-3.3-.53-6.46.33-9.62l1.07-3.91c3.86-14.12-1.53-12.84.68-30.91.85-6.97,1.52-14.62.68-21.48-4.76-4.88-9.07-10.01-12.71-15.84-2.12-3.39-5.98-5.18-7.34-9.41,9.04,5.67,12.48,17.24,20.22,22.66,1.8-4.53,3.37-9.13,8.07-10.05-3.42,4.43-7.66,8.18-6.05,13.47,2.93,9.65,7.5,18.29,11.07,27.94ZM703.46,386.6c4.38-4.28,4.94-10.35,3.59-15.64l-3.59,15.64ZM758.62,394.78c.95-6.81.35-12.12-.37-17.88l-2.45-6.29-3.08,8.21c-1.04,2.76.01,6.11,1.5,8.49l4.41,7.47Z"/>
  <path class="cls-1" d="M228.24,427.53l-89.21,8.75-1.06,1.36c-.22.28-1.16-.64-1.53-.87l-10.82.24c2.97-2.1,6.92-1.23,9.76-2.04l1.91-1.19c.47-.29,1.62.78,2.2.93l35.33-3.55-9.21-1.06,8.3-1.5,1.7-.92c.37-.2,1.53.98,2.2.94l43.35-2.45,14.24-1.05c-2.97-3.21-7.1-3.96-9.31-8.1,3.97,1.82,6.92,4.25,10.87,6.89.89-4.21-2.06-7.86-.24-12.78l2.26,10.94,4.67-10.31c.73,2.36.01,3.37-.3,5.32l3.84-3c-.69,2.81-2.45,4.01-3.45,6.2l-1.7,4.38,10.28-2.43c.31,2.81-2.33.93-3.74,3.37l173.88-.3.04-177.23h63.15s-.01,176.71-.01,176.71c3.77.57,7.51.5,11.81.11-8.27-48.17-8.6-97.29.56-145.58,10.82-57.09,33.47-111.24,66.1-159.11,6.47-9.49,12.77-18.23,21.22-27.02l.12,138.48c0,.92-.67,1.9-1.35,2.02l-.14-136.9c-15.3,17.86-27.55,36.86-38.74,57-46.39,83.54-62.74,176.79-46.16,271.29l30.43.05c6.79.01,13.77-.99,20.48.76-16.89,1.65-33.69-.39-50.29,1.27,8.04,49.07,28.18,99.97,53.41,141.17,1.36,2.22.24,2.39-.2,2.46-27.21-44.04-45.81-92.65-55.09-144.09l-12.12-.02-.02,34.36h-63.12s-.07-34.17-.07-34.17l-176.56.35,5.74,3.06c-3.5.09-5.69-.88-9.01-1.79l.37,3.44,3.92.28c.22,1.19-.28,2.92-1.33,3.78l1.09,2.38c.08.16-.04.57-.07.76-.05.28-1.23-.22-1.39-.48l-5.88-9.51c-.81,4.39-.82,8.19-2.03,12.19-1.19-3.58-.13-7.28-.01-10.81l-1.66-.4c-.31-.07-.09-.78,0-2.15-1.6.06-4.05,1.49-5.59,2.5l-5.21.19,3.39-3.14ZM484.28,425.15v-175.67s-60.41.04-60.41.04v175.77s60.41-.15,60.41-.15ZM484.3,459.4l-.05-32.82-60.32.32.1,32.54,60.26-.04Z"/>
  <path class="cls-1" d="M408.86,702.87c-1.67-1.34-2.18-2.09-3.32-3.49l-1.41-.82c-.36-.21-.21-.88-.24-1.89l-155.2-253.88c12.61,16.17,159.43,260.57,158.22,253.45l.31,1.82,1.64,4.8Z"/>
  <path class="cls-1" d="M263.39,402.06c-2.19.71-2.91,1.08-4.1,2.4l-.77.85c-.17.19-1.19.11-1.08-.12,2.27-4.83,2.97-1.94,1.96-5.82l-7.44,9.47,2.74,3.9-5.41-2.73,123.92-163.31-.03-1.91c0-.35,1.18-.33,1.61-.42,1.66-1.97,3.28-3.98,5.29-5.86-.24,3.15-2.42,4.51-3.75,6.92v1.83c.01.43-1.2.31-1.96.48l-113.45,149.52c2.37.89,4.1,1.57,3.48,3.91l-3.77-3.1-.92.97,3.68,3.02Z"/>
  <path class="cls-1" d="M404.82,477.6c-5.83-.41-12.27-3.43-18.24-4.8-.39.09-1.48.57-1.81.7s-.68-.86-1.05-1.49c-42.79-14.17-86.17-25.56-129.02-40.71l129.05,38.6c1.59.48,2.42.2,3.74,1.01,5.25,3.25,11.77,2.56,17.33,6.7Z"/>
  <path class="cls-1" d="M806.27,354.02c-9.88-.79-18.82.82-28.57-.86,9.29-2.07,17.99,0,27.45-1.27-9.72-5.46-20.51-6.79-29.83-13.22l37.38,14.35c-11.98,5.3-22.71,10.47-34.58,14.24,8.96-6.32,19.1-8.1,28.16-13.23Z"/>
  <path class="cls-1" d="M704.34,310.96c-29.54-10.15-58.46-21.69-87.14-34.25,29.72,10.22,58.26,21.61,87.14,34.25Z"/>
  <path class="cls-1" d="M229.77,520.72l-.51-5.74c-.16-.3-.52-1.05-.66-1.34-.19-.38.97-1.32,1.04-1.9l7.27-67.41c1.81,3.77-7.7,73.33-4.41,69.47l-1.02,1.19-1.71,5.73Z"/>
  <path class="cls-1" d="M235.87,408.14c-1.8.42-5.26-41.61-7.3-37.63l.84-1.63c0-2.44-1.08-4.3.15-7.16l1.86,6.97,1.12,1.21c-3.18-3.46,5.24,36.16,3.34,38.24Z"/>
  <path class="cls-1" d="M571.33,597.02c5.47,3.02,7.43,9.28,12.38,13.38,1.18-9.04-.82-18.15,1.2-27.62.88,10.63.67,20.54.16,31.37-5.45-5.65-9.86-10.57-13.75-17.13Z"/>
  <path class="cls-1" d="M686.46,353.62c-11.41,1.3-22.03,1.3-33.43.11,11.11-1.35,22.18-1.42,33.43-.11Z"/>
  <path class="cls-1" d="M814.22,425.99c-12.78-.5-25.58.61-39.13-.69,12.74-1.85,25.87.01,38.76-1.05l1.22-3.44c.87,2.89.81,5.46.2,8.25-.64.09-.8-.79-1.05-3.07Z"/>
  <path class="cls-1" d="M678.53,426.22l-28.14.07c-.35,0-1.55-.88-1.32-.99.31-.15,1.21-.61,1.59-.61h27.66c.28,0,1.32.4,1.58.48.35.11-.78,1.06-1.36,1.06Z"/>
  <path class="cls-1" d="M678.55,410.19l-28.28,12c-.54.23-2.05.08-1.87-.16l.8-1.06,28.46-12.08c.56-.24,1.58-.2,1.88-.19s-.52,1.29-.99,1.49Z"/>
  <path class="cls-1" d="M260.83,422.1l-5.48.06,4.33-2.32,1.18-1.08c.34-.31,1.69.48,2.25.41,6.52-.74,13.26-4.28,20.37-4.1-6.88,3.38-14.27,3.75-20.89,6.29-.14.41-.4,1.26-.4,1.24s-1.12-.38-1.36-.51Z"/>
  <path class="cls-1" d="M459.56,495.13c-.57-.16-1.22-.96-2.15-2.1l-.92,2.64-4.88-1.68c-.27-.09-.74-1.5-.97-1.33l-1.2.93-.38-.9c-.07-.17-.01-1.02-.18-.92l-1.85,1.08c-.05-1.36.34-2.88,1.21-4.56l.9,2.86,1.43-1.92c2.41,1.05,5.14,1.51,6.69,2.77,5.13,4.16,8.85,2.62,9.72,4.21.12.21,0,.96-.25.92-.27-.05-1.14-.22-1.39-.3l-5.81-1.68Z"/>
  <path class="cls-1" d="M223.41,415.54c-5.37-2.26-9.87-6.51-15.1-9.8-.94-.12-2.54.07-2.54-.57,0-1.08.25-2.25.87-2.55,1.1-.53,1.95.54,2.75,1.49,3.9,4.58,10.12,5.88,14.02,11.44Z"/>
  <path class="cls-1" d="M339.11,596.86c.92,1.54,2.39,2.21.96,3.81l-6.29-10.17c-.75-1.21-1.69-1.79-3.74-3.15l3.92-2.38c-.04,1.49-.27,2.78.07,3.36l5.08,8.53Z"/>
  <path class="cls-1" d="M492.67,504.79c.06,1.18-2.42-1.29-5.55.08l-.32-2.51-.78,1.52c-.14.27-1.02.85-1.1.56l-.42-1.56c1.89.75-8.16-2.84-3.73-2.33l1.59.19c1.39.16,2.73.09,3.99-.18l.91,1.16c.17.22.99-.59,1.05-.61,3,3.98,4.21.99,4.34,3.68Z"/>
  <path class="cls-1" d="M23.06,448.5c-1.07-.16-3.04-.49-4.37-.57l-1.36-.08c-.28-.02-.45-.81-.17-.86l1.55-.32c1.45-.3,3.14-1.05,4.01-1.63l5.83,1.4-5.49,2.06Z"/>
  <path class="cls-1" d="M75.25,433.76l-5.65,2.34c-.64.26-1.78.33-2.34.11-.67-.26-.78-3.24-.22-3.68,1.08-.85,6.9.75,8.21,1.23Z"/>
  <path class="cls-1" d="M284.2,309.55l-.72,1.31c-.11.21-.91-.05-.86-.28l.33-1.44c.3-1.28.43-2.93.33-4.02l.75-1.23c.16-.27-.04-.46-.28-1.65l4.48,1.19c-3.18,6.51-.98.59-4.03,6.11Z"/>
  <path class="cls-1" d="M349.4,611.36c.46,3.65,3.74,8.2.25,4.87l-3.11-2.97c-.63-.6-1.31-1.49-1.48-2.12-.19-.73,1.87-1.95,2.61-2.11s1.61,1.4,1.73,2.34Z"/>
  <polygon class="cls-1" points="405.68 709.86 401.1 709.85 401.19 705.27 405.64 705.37 405.68 709.86"/>
  <path class="cls-1" d="M286.9,484.41c-.46-5.5-8-8.69-5.3-9.7.24-.09.89.49,1.07.71l3.79,4.52c.86,1.03,1.75,1.3,3.51,1.64-.32.66-1.8,2.06-3.08,2.83Z"/>
  <path class="cls-1" d="M102.14,439.96c-1.4.76-2.77,2.05-4.57,1.43l.13-4.26,1.43,2.31.35-1.49c.07-.31.44-1.06.64-.82l1.07,1.32,4.82-.21c-.16,2.06-2.63,1.04-3.88,1.71Z"/>
  <path class="cls-1" d="M149.67,365.78l-2.78-1.8,2.4-3.33c1.1.56,2.76,2.15,3.46,3.52-.15.79-2.37,2.07-3.08,1.61Z"/>
  <path class="cls-1" d="M47.59,437.74c-2.21-.61-3.02-.84-4.53-1.18l-1.28-.29c-.19-.04-.46-.18-.27-.28.17-.09.56-.29.84-.41l5.04-2.18.21,4.34Z"/>
  <path class="cls-1" d="M134.45,461.03c-.54.17-1.39.43-1.33.41.05-.01-.36-.73-.5-.88-.63-.69,3.14-.38,4.77-3.32l2,1.08c.57.31-.49,3.03-.88,2.82l-1.61-.86-2.45.76Z"/>
  <path class="cls-1" d="M203.15,398.77l-2.24,3.15-6.84-4.49,2.53-3.59c.97.78,2.3,2.15,3.1,2.67l3.45,2.26Z"/>
  <path class="cls-1" d="M99.34,433.11l-4.26-.63,6.55-2.6-.14,4.88c-.83-.69-1.63-1.57-2.15-1.65Z"/>
  <path class="cls-1" d="M268.26,354.48c-4.48,2.91-.93,2.8-4.06,5.53-.5-1.86.43-3.56,1.24-5.01l-1.11-1.46c-.21-.27.88-.94,1.17-.76l2.76,1.7Z"/>
  <path class="cls-1" d="M307.08,409.64l-1.47.37c-.23.06-.48-.58-.55-.81-.09-.35.92-.63,1.37-.74l6.01-1.43,1.33-.31c.27-.06.61.95.35,1.04s-1.01.34-1.3.42l-5.74,1.46Z"/>
  <path class="cls-1" d="M83.32,440.96c-3.18,1.38-6.51,1.74-9.88.93,3.18-1.29,6.42-1.71,9.88-.93Z"/>
  <path class="cls-1" d="M147.9,431.23l-.94-1.04c-.13-.14-.32-1.03-.43-.87l-1.18,1.76c-1.02-.23-1.19-3.17-.77-4.2l3.69-.06-.37,4.4Z"/>
  <path class="cls-1" d="M305.4,501.3c.24.27.32,1.66.04,1.54-3.76-1.63-.71-2.4-5.26-3.08l1.85-3.28c.72.27,1.4.38,1.38.59l-.22,1.78,2.2,2.45Z"/>
  <path class="cls-1" d="M396.42,692.35l-5.22-8.79c-2.94-7.69,10.57,13.67,5.22,8.79Z"/>
  <path class="cls-1" d="M126.87,346.67c.08.43.17,1.06-.03.97l-1.71-.78c-1.21-.55-2.36-.84-3.82-1.1-.58-.53,1.27-3.54,2.09-3.23.99,1.7,1.61,2.43,3.47,4.14Z"/>
  <path class="cls-1" d="M473.94,497.98c.13.2.51,1.14.29,1.12l-1.58-.12c-1.6-.12-2.53-.03-4.43.2.02-.87.8-3.48,1.24-4.16,1.43,2.15,1.85,2.29,4.48,2.95Z"/>
  <path class="cls-1" d="M129.21,430.8l-7.13.29c-1.46.11-.96-.68.09-1.29l6.24-.26c.42-.02,1.47.14,1.82.19.33.05-.69.91-1.02,1.07Z"/>
  <path class="cls-1" d="M49.22,444.07c4.92.81-16,2.79-9.78.65,3.56-.47,6.77-.86,9.78-.65Z"/>
  <path class="cls-1" d="M118.91,428.38c.55,1.11.71,3.5.43,4.32-1.44-.12-1.67-.09-3.36.11-.27-.54-.23-2.81.15-4.34l1.29,3.11,1.49-3.2Z"/>
  <path class="cls-1" d="M255.37,384.29c-.1.27-.75.94-.93,1.11-.25.22-.5-1.12-.37-1.44l2.52-6.39c.1-.24.58-.83.74-.98s1-.12.92.1l-.52,1.51-2.36,6.1Z"/>
  <path class="cls-1" d="M504.83,507.98c4.13,2.04-7.25-1.56-6.03.68l-1.18-2.46c-.24-.5,1.67-1.14,2.11-1.32,2.7,3.09-.06.56,5.1,3.11Z"/>
  <path class="cls-1" d="M164.05,519.79l-3.73-2.67c4.95-.68,4.11-3.41,5.29-3.16l.76.16c1.5.32-2.92,2.54-2.33,5.67Z"/>
  <path class="cls-1" d="M392.87,223.16l-.93,1.24c-.17.23-1,.12-.97-.17s.2-1.14.38-1.38l1.46-1.91c.34-.45-.04-.83-.23-2.73l3.8,2.83c-1.85.83-2.94,1.33-3.52,2.11Z"/>
  <path class="cls-1" d="M350.93,398.64l-2.33.15c-.55.04-.88.86-1.95,2.11l-1.13-4.67,2.31,1.63c.51.36,2.26-.73,2.88-.78l1.33-.1c.22-.02.36.51.31.73-.07.32-1.02.9-1.43.92Z"/>
  <path class="cls-1" d="M436.8,487.99c-4.41-2.8,13.51,1.89,9.44,2.84l-9.44-2.84Z"/>
  <path class="cls-1" d="M105.8,432.38h-1.78c-.23,0-.24-.35-.29-.69s.58-.36,1.22-.6l4.38-1.68-.07,4.42-1.31-1.21c-.29-.27-1.1-.24-2.14-.24Z"/>
  <path class="cls-1" d="M225.23,589.75c-.56.17-3.17-.42-4.03-.89l1.97-1.24c.39-.24-.17-1.65-.12-2.11l.17-1.58c.04-.37,1.21-.71,1.21-.34l.04,1.94c.02,1.05.29,2.13.76,4.22Z"/>
  <path class="cls-1" d="M31.78,446.62l-1.7.15c-.22.02-.52-.75-.33-.84l1.13-.53,7.18-.91.92.83c.26.23-1.12.74-1.5.78l-5.7.52Z"/>
  <path class="cls-1" d="M267.63,456.44c-.27.31-2.54,2.13-3.05,2.45-.65-2.03-.92-2.75-1.69-4.18l-.69-1.28c-.19-.35.97.05,1.34.3l4.08,2.71Z"/>
  <path class="cls-1" d="M58.82,434.78c-3.24,1.57-6.52,1.61-9.84.61,3.24-1.05,6.44-1.32,9.84-.61Z"/>
  <path class="cls-1" d="M292.47,413.32c-2.32.71-3.17,1.2-4.77,2.8l-1.02-4.11c2.16.57,2.79.69,4.44.42l1.68-.28c.35-.06-.07.97-.33,1.16Z"/>
  <path class="cls-1" d="M160.83,453.83c-3.93-2.37-3.51,1.48-6.52-.12,1.24-1.52,3-1.66,4.63-1.55l.45-2.5c1.15.91,1.84,3.13,1.45,4.17Z"/>
  <path class="cls-1" d="M124.72,464.24c-.38.13-1.58-.01-1.9-.05s.54-.8.81-.99l6.39-2.11c.23-.08,1.01-.17,1.21-.17.19,0,.46.46.35.63-.16.24-.75.7-1.09.81l-5.77,1.89Z"/>
  <polygon class="cls-1" points="136.14 430.54 131.44 429.99 137.83 427.31 137.84 431.94 136.14 430.54"/>
  <polygon class="cls-1" points="228.8 554.39 226.19 560.34 224.7 554.07 228.8 554.39"/>
  <path class="cls-1" d="M171.73,448.75l-1.63.45c-.28.08-.73-1.06-.45-1.14l1.52-.43c1.76-.49,2.43-1.03,3.93-2.86l1.36,4.23-2.28-1.1c-.5-.24-1.6.62-2.45.85Z"/>
  <path class="cls-1" d="M216.67,277.33c.44-7.61,4.01,15.19,1.48,9.72l-1.48-9.72Z"/>
  <path class="cls-1" d="M288.05,299.09l-.72,1.97c-.1.27-.94.12-.94-.16s.07-1.33.19-1.59l1.06-2.29c.22-.48-.39-1.04-.97-2.57l4.27,1.58c-1.53,1.18-2.51,2-2.89,3.06Z"/>
  <path class="cls-1" d="M221.78,625.34c-.62-.03-2.1-.27-4.14-.66l3.39-1.56-3.04-1.29c1.71-.32,3.44-.31,4.43-.09l-.63,3.6Z"/>
  <path class="cls-1" d="M148.99,430.8l.28-4.72,1.43,3.17.97-3.07c.88.93,1.23,3.2.86,4.22l-3.53.4Z"/>
  <path class="cls-1" d="M388.51,231.42c-1.01-.17-2.62-1.41-3.58-2.51l1.97-.17c.89-.08,1.4-3.28,3.37-3.48,1.28,1.37-2.38,3.72-2.27,4.14l.5,2.03Z"/>
  <path class="cls-1" d="M371.76,649.97c-2.92,1.1-1.15-3.08-5.39-3.76.55-.66,2.15-1.72,3.59-2.32l-.57,2.04,2.37,4.03Z"/>
  <path class="cls-1" d="M133.03,351.09c2.67,2.45-5.15-1.76-5.81-1.23.27-.48,1.72-2.49,2.35-3.28,1,1.92,1.41,2.63,2.55,3.68l.91.84Z"/>
  <path class="cls-1" d="M183.6,444.3c-2.58,1.48-3.65,1.98-5.74,3.51-.53-.09-1.1-2.48-.98-3.96l1.75,1.34c1.48-.84,3.33-1.34,4.97-.89Z"/>
  <path class="cls-1" d="M65.67,442.68c-1.74.92-2.91,1.03-4.51,1.07l-2.17,1.97-.22-4.82,1.88,1.84c1.54-.37,2.83-.67,5.01-.05Z"/>
  <path class="cls-1" d="M324.9,405.29c-.3-.16-5.48,1.53-4.39.11,1.83-2.4,2.5.81,5.23-3.21.45.56.87,2.24,1.15,4.13l-2-1.03Z"/>
  <path class="cls-1" d="M121.33,437.29l-5.69,2.49c-.31-.45-.59-2.97-.48-3.89l6.17,1.4Z"/>
  <path class="cls-1" d="M163.55,427.94c-3.33.87-6.64,1.19-10.26.57,3.28-1.4,6.65-1.44,10.26-.57Z"/>
  <path class="cls-1" d="M382.85,672.79c-.12-1.55-.19-3.02-.67-3.8l-3.08-5.03c-.49-.81-1.36-1.27-2.84-1.95.24-.61,2.25-1.85,3.59-2.3-.24,1.21-.7,1.73-.47,2.15l1.1,2.08c1,1.88,3.03,5.92,5.74,6.58-.11.51-1.99,1.82-3.37,2.27Z"/>
  <path class="cls-1" d="M72.47,442.03c2,.5-3.89.37-5.45,2.69l-.52-4.19,4.94,1.24,1.03.26Z"/>
  <path class="cls-1" d="M86.74,441.22l-1.8.17c-.24.02-.26-.56-.26-.9-.01-1.2,4.99.17,8.41-1.49l.7.94c.2.27-.88.71-1.22.74l-5.82.54Z"/>
  <path class="cls-1" d="M300.32,494.03l-2.95,2.6c-.34-5.23-2.83-2.96-2.03-5.94.32-1.2,2.47,3.07,4.98,3.34Z"/>
  <path class="cls-1" d="M66.1,436.34l-4.75-1.13-1.44-.34c-.26-.06.46-.37.81-.5l4.9-2.04.48,4.02Z"/>
  <path class="cls-1" d="M414.82,481.42c-.74-.22-2.1-1.04-2.49-.87l-2.35,1.05,1.19-4.14c1.7,1.47,2.43,1.96,4.11,2.71l1.14.51c.32.14-1.27.85-1.61.75Z"/>
  <path class="cls-1" d="M436.07,487.25c.32,1.23-4.04-1.51-5.93.02-.39-.47.56-3.35,1.18-3.63,1.28,1.54,1.9,1.99,3.08,2.29l1.25.31c.25.06.34.76.41,1.01Z"/>
  <path class="cls-1" d="M247.14,409.99c-1.18-.29-3.39-1.2-3.92-1.63l3.49-3.42.44,5.04Z"/>
  <path class="cls-1" d="M175.25,378.85c.43.2-1.79,4.02-3.33,3.05.69-1.15,1.66-2.61,2.09-3.32.11-.18,1.03.16,1.24.26Z"/>
  <path class="cls-1" d="M615.31,579.32l-4.4-2.94c.35-2.47.7-4.31,1.32-6.63,2.44,2.99,3.05,5.17,3.08,9.57Z"/>
  <path class="cls-1" d="M582.35,365.7c-1.03,3.31-4.14,7.06-7.31,5.69,6.97-3.89,6.33-8.54,9.35-17.24,1.35-3.9,5.84-7.2,9.51-4.72-4.26.94-7.07,1.89-8.24,5.66l-3.31,10.62Z"/>
  <path class="cls-1" d="M587.8,425.63l.86-8.43c3.67-.1-2.16,13.38,3.3,12.2.77-.17,1.55-1.75,1.47-2.58l-.69-7.84c-.08-.88,1.63-2.84,2.33-2.89-2.18,6.48,2.58,14.21-3.1,14.8-2.59.27-4.46-2.44-4.17-5.26Z"/>
  <path class="cls-1" d="M610.48,371.63c-3.71,2.27-8.68-11.87-9.99-14.99-1.19-2.82-3.12-5.04-5.41-7.53,2.5-.34,4.59,2.1,5.6,4.36l5.66,12.73c.79,1.78,2.45,3.3,4.14,5.42Z"/>
  <path class="cls-1" d="M616.72,391.16c-4.29,6.67-6.18,19.61-13.91,22.76,4.25-5.95,7.78-10.93,9.53-17.63.56-2.16,1.97-4.53,4.38-5.13Z"/>
  <path class="cls-1" d="M615.14,498.39c-1.28.39-2.88.5-3.51-.04-2.73-2.35.06-3.98-3.04-9.16-1.2-1.99-1.67-4.49-.01-6.21.56,3.19,1,5.41,2.85,7.94l.54,5.42,3.16,2.06Z"/>
  <path class="cls-1" d="M575.54,483.41c.04,1.62.03,3.26-.18,4.62l-4.66-10.48,8.63,5.89-3.8-.03Z"/>
  <path class="cls-1" d="M588.07,552.2c1.27-1.76,1.04,18.61-1.2,15.32.2-5.24-.05-9.84,1.2-15.32Z"/>
  <path class="cls-1" d="M621.52,488.47c-1.96-2.82-1.1-6.06,1.4-8.15l-1.4,8.15Z"/>
  <path class="cls-1" d="M618.53,304.13c-1.32,1.2-3.93,1.92-5.92,1.63l-12.92-1.92c1.49-1.58,3.03-.93,4.76-.68,4.64.69,8.78.82,14.08.97Z"/>
  <path class="cls-1" d="M595.3,301.83c-1.39.67-4.9-1.6-3.96-3.48l3.24,2.13c1.94-2.55,3.58-5.35,6.22-7.64-.82,3.63-3,6.21-5.5,9Z"/>
  <path class="cls-1" d="M617.71,338.02c-.7-.19-1.79-.66-2.1-.97-.38-.39.27-1.76.74-2.04s1.71-.37,2.09.04l1.45,1.59c.38.41-1.62,1.53-2.18,1.38Z"/>
  <path class="cls-1" d="M570.55,337.71l-1.82-1.26c-.46-.32.95-1.6,1.52-1.62.77-.02,1.66-.07,1.95.27s.58,1.18.64,1.62c.07.55-1.83,1.3-2.29.98Z"/>
  <path class="cls-1" d="M586.42,271.28l-4.93-2.77,7.49-1.13-7.21-1.21c1.79-1.34,5.44-1.56,7.28-.46,3.58,2.14,3.93,8.06,1.43,11.07l-.46-5.76c-.07-.93-2.33-.29-3.61.26Z"/>
  <path class="cls-1" d="M596.33,275.06c1.63.46,1.63,3.35.71,4.42l-8.34.41c-.85.04-2.39-1.58-2.29-2.38s1.19-1.99,1.95-2.26l-.08,2.94,7.65-.08.39-3.05Z"/>
  <path class="cls-1" d="M598.32,283.09c-4.03,1.12-8.19,1.18-12.5.42,3.95-2.42,8.31-2.63,12.5-.42Z"/>
  <path class="cls-1" d="M599.59,270.47l-3.67-.13c.37-1.59,1.9-2.8,3.41-2.68s3.06.8,4.3,1.9c-1.45.43-3.04.95-4.04.92Z"/>
  <path class="cls-1" d="M604.32,267.05l-9.5-.48c2.78-2.41,7.59-2.36,9.5.48Z"/>
  <path class="cls-1" d="M734.53,313.32c-.63,2.14-4.55,15.97-7.75,11.01,5.25-2.14,3.81-9.94,7.75-11.01Z"/>
  <path class="cls-1" d="M711.98,508.23l2.5-1.34c2.08-1.11-.91-6.77,1.76-7.78.49,2.51,1.43,8.54-1.13,9.4-.72.24-2.53,0-3.13-.28Z"/>
  <path class="cls-1" d="M765.69,511.62c-3.45-.94-5.86-5.55-4.45-9.2l4.45,9.2Z"/>
  <path class="cls-1" d="M707.36,412.53c-2.71-.84-4.3-4.36-3.94-7.6,1.64,2.14,2.77,4.26,3.94,7.6Z"/>
  <path class="cls-1" d="M747.11,379.02l-2.65,7.42c-1.65-2.72-.35-5.96,2.07-7.85.35.26,1.24.93.58.43Z"/>
  <path class="cls-1" d="M747.32,362.24c-1.6-1.69-.09-3.91,2.08-5.04.32.52.75,2.19.76,2.97s-1.68,1.84-2.84,2.07Z"/>
  <path class="cls-1" d="M732.75,327.12c.22.28-5.61,3.9-7.13,1.54l5.31-2.07c1.38-.54,1.4,0,1.82.53Z"/>
  <path class="cls-1" d="M724.52,320.7c-2.22-1.94-2.92-4.79-2.55-7.54,1.92,2.21,2.73,4.84,2.55,7.54Z"/>
  <path class="cls-1" d="M724.41,401.26c-1.04,2.49-1.54,2.92-2.71,2.63s-1.66-1.4-1.57-2.98l4.28.34Z"/>
  <path class="cls-1" d="M704.76,362.22l1.84-1.31c.36-.25.17-1.2.25-1.88.51-.08,1.93.73,2.06,1.41s-.63,2.21-1.26,2.49-1.97-.17-2.88-.71Z"/>
  <path class="cls-1" d="M719.22,300.14c-.7.09-2.05-2.01-1.36-2.59,3.02,1.43,5.63.99,7.48-1.6l.67,1.96c.2.59-1.42,1.52-2.09,1.61l-4.69.62Z"/>
  <path class="cls-1" d="M727.63,303.08l-7.32.97c-.73.1-2.6-1.03-2.52-1.42,3.03-1.5,6.38-1.78,9.84.45Z"/>
  <path class="cls-1" d="M731.6,291.56c-2.08,1.42-4.58,1.95-7.21,1.75,1.13-3.94,4.71-3.49,7.21-1.75Z"/>
  <path class="cls-1" d="M731.12,288.82l-8.42.77c2.13-2.73,6.42-3.12,8.42-.77Z"/>
</svg>