<?xml version="1.0" encoding="UTF-8"?>
<svg id="_レイヤー_1" data-name="レイヤー 1" xmlns="http://www.w3.org/2000/svg" viewBox="0 0 1920 1080">
  <defs>
    <style>
      .cls-1 {
        fill: #fff;
      }
    </style>
  </defs>
  <path class="cls-1" d="M716.23,534.72c.18,35.09-9.58,66.97-29.3,95.65-15.64,22.55-36.13,40-61.47,52.36-25.34,12.36-53.42,18.62-84.21,18.78-49.26.26-89.5-14.21-120.74-43.42-31.24-29.34-46.98-67.4-47.23-114.19-.25-46.65,16.02-85.28,48.79-115.89,32.91-30.74,74.56-46.25,124.95-46.51,50.39-.27,91.13,13.68,122.22,41.82,31.09,28.01,46.76,65.14,47,111.4ZM667.26,534.57c-.18-33.62-10.96-60.48-32.36-80.57-21.4-19.95-50.05-29.84-85.96-29.65-36.06.19-66.3,11.65-90.73,34.37-24.15,22.72-36.14,51.03-35.96,84.92.18,33.49,11.61,61.14,34.29,82.95,22.68,21.68,51.27,32.43,85.76,32.24,35.91-.19,65.73-12.11,89.45-35.76,23.86-23.38,35.7-52.89,35.52-88.51Z"/>
  <path class="cls-1" d="M1085.47,532.77c.18,35.09-9.58,66.97-29.3,95.65-15.64,22.55-36.13,40-61.47,52.36-25.34,12.36-53.42,18.62-84.21,18.78-49.26.26-89.5-14.21-120.74-43.42-31.24-29.34-46.98-67.4-47.23-114.19-.25-46.65,16.02-85.28,48.79-115.89,32.91-30.74,74.56-46.25,124.95-46.51,50.39-.27,91.13,13.68,122.22,41.82,31.09,28.01,46.76,65.14,47,111.4ZM1036.5,532.63c-.18-33.62-10.96-60.48-32.36-80.57-21.4-19.95-50.05-29.84-85.96-29.65-36.06.19-66.3,11.65-90.73,34.37-24.15,22.72-36.14,51.03-35.96,84.92.18,33.49,11.61,61.14,34.29,82.95,22.68,21.68,51.27,32.43,85.76,32.24,35.91-.19,65.73-12.11,89.45-35.76,23.86-23.38,35.7-52.89,35.52-88.51Z"/>
  <path class="cls-1" d="M1313.5,648.99l-5.53,42.49-242.08,1.27,192.99-266.37-138.39.73,5.31-42.49,217.59-1.15-192.56,266.37,162.66-.86Z"/>
  <path class="cls-1" d="M1546.38,382.42l-5.31,42.49-120.72.64-10.01,79.8,120.72-.64-4.9,39.5-120.72.64-13.08,103.74,120.72-.64-5.53,42.49-169.26.89,38.83-308.02,169.26-.89Z"/>
</svg>